<svg width="64" height="64" viewBox="0 0 64 64" fill="none" xmlns="http://www.w3.org/2000/svg">
<path d="M25.0253 28.5939C14.6453 22.4778 14.8344 7.96395 25.1119 2.04492C25.1368 2.03052 25.1645 2.02132 25.1932 2.0179C25.2216 2.01447 25.2507 2.01689 25.2782 2.02499C25.3059 2.0331 25.3317 2.04673 25.3538 2.06505C25.376 2.08338 25.3943 2.10603 25.4075 2.13162L26.314 3.86555C26.3417 3.9177 26.3486 3.97852 26.3334 4.03563C26.318 4.09273 26.2815 4.14183 26.2312 4.17293C17.6362 9.44173 17.5103 21.1103 26.1996 26.3751C26.2558 26.4107 26.2965 26.4659 26.3133 26.5297C26.3303 26.5933 26.322 26.6608 26.2902 26.7181L25.3247 28.5111C25.3109 28.5364 25.2918 28.5587 25.2692 28.5769C25.2464 28.5948 25.2205 28.608 25.1925 28.6158C25.1645 28.6234 25.1354 28.6254 25.1066 28.6216C25.0779 28.618 25.0502 28.6084 25.0253 28.5939Z" fill="#FF2C32"/>
<path d="M37.6282 4.12896C37.5928 4.1069 37.5673 4.07232 37.5564 4.03215C37.5454 3.99198 37.5499 3.94916 37.5691 3.91223L38.5149 2.11129C38.5281 2.08639 38.5465 2.0644 38.5682 2.04665C38.5901 2.0289 38.6154 2.01576 38.6423 2.00803C38.6691 2.00029 38.6971 1.99811 38.7248 2.00164C38.7523 2.00517 38.7787 2.01431 38.8025 2.02853C49.2022 8.20371 49.1865 22.2722 38.9246 28.5854C38.8964 28.6028 38.8651 28.6142 38.8322 28.6192C38.7993 28.6241 38.766 28.6223 38.7338 28.6138C38.7018 28.6053 38.6718 28.5903 38.6456 28.5699C38.6194 28.5493 38.5977 28.5238 38.5818 28.4947L37.6519 26.745C37.6286 26.7 37.621 26.6485 37.6302 26.5993C37.6396 26.5499 37.6653 26.5056 37.7031 26.4731C38.3453 25.9254 39.1573 25.472 39.7051 24.9992C46.6722 18.9856 45.2261 9.02339 37.6282 4.12896Z" fill="#FF2C32"/>
<path d="M25.8609 24.5629C22.3036 21.6021 20.6984 18.1132 21.0452 14.0962C21.3473 10.5942 23.072 7.83305 26.2193 5.81276C26.2457 5.796 26.2753 5.78461 26.3059 5.77931C26.3366 5.774 26.3679 5.77487 26.3981 5.78186C26.4283 5.78884 26.4565 5.80181 26.4813 5.81998C26.5062 5.83815 26.527 5.86116 26.5427 5.88763L27.5198 7.56246C27.5527 7.62024 27.5628 7.68801 27.548 7.75228C27.5334 7.81654 27.4952 7.87259 27.441 7.90924C21.9751 11.5072 22.0738 19.1719 27.4766 22.7659C27.5238 22.7967 27.5578 22.8443 27.5717 22.899C27.5856 22.9538 27.5784 23.0118 27.5513 23.0615L26.8342 24.3776C26.5845 24.8348 26.26 24.8965 25.8609 24.5629Z" fill="#FF2C32"/>
<path d="M36.5286 7.93902C36.464 7.89315 36.419 7.82461 36.4022 7.74668C36.3854 7.66875 36.3982 7.58701 36.438 7.51737L37.3482 5.90165C37.367 5.86793 37.3926 5.83855 37.4234 5.81542C37.4545 5.7923 37.4901 5.77595 37.5279 5.7674C37.5657 5.75887 37.6051 5.75834 37.6434 5.76586C37.6816 5.77337 37.7181 5.78875 37.7503 5.81101C44.6308 10.5912 44.753 20.2854 37.6635 24.8292C37.6338 24.8484 37.6004 24.8612 37.5657 24.867C37.5308 24.8728 37.4953 24.8715 37.4613 24.863C37.4272 24.8545 37.3952 24.839 37.3677 24.8175C37.3402 24.7961 37.3174 24.7692 37.301 24.7385L36.4024 23.0873C36.3718 23.029 36.3635 22.9615 36.3796 22.8981C36.3957 22.8346 36.4347 22.7798 36.4893 22.7445C42.0418 19.0717 41.754 11.7379 36.5286 7.93902Z" fill="#FF2C32"/>
<path d="M27.3546 21C23.6345 18.0444 23.8235 12.4564 27.4097 9.48115C27.4253 9.46824 27.4435 9.45875 27.4632 9.45329C27.4826 9.44783 27.5028 9.44656 27.5227 9.44956C27.5424 9.45253 27.5614 9.45972 27.5777 9.47061C27.5943 9.48151 27.6084 9.49585 27.6187 9.51268L28.722 11.2348C28.75 11.2778 28.763 11.3289 28.7587 11.3796C28.7545 11.4304 28.7332 11.478 28.6983 11.5146C26.7017 13.661 26.5032 16.0005 28.1033 18.5331C28.1752 18.646 28.2781 18.734 28.3989 18.7853C28.5967 18.7796 28.1349 20.5941 27.6659 20.9961C27.6225 21.0328 27.5677 21.0533 27.5108 21.054C27.4542 21.0548 27.3987 21.0357 27.3546 21Z" fill="#FF2C32"/>
<path d="M36.2763 9.5907C36.2922 9.56644 36.313 9.54581 36.3376 9.53013C36.362 9.51444 36.3895 9.50404 36.4183 9.49961C36.4472 9.49515 36.477 9.49674 36.5054 9.50428C36.5338 9.51182 36.5604 9.52516 36.5837 9.54342C40.3589 12.4714 40.0005 18.1146 36.5206 21.1096C36.4958 21.1306 36.4667 21.1463 36.4354 21.1554C36.404 21.1645 36.3711 21.1669 36.3387 21.1624C36.3065 21.158 36.2754 21.1467 36.2476 21.1295C36.2199 21.1122 36.1962 21.0893 36.1778 21.0623L35.2004 19.5884C35.1586 19.5249 35.1387 19.4496 35.1438 19.3741C35.1488 19.2986 35.1783 19.2271 35.2282 19.1707C37.4586 16.625 37.4678 14.0727 35.2557 11.5138C35.2116 11.4627 35.1855 11.3987 35.1812 11.3318C35.1767 11.2648 35.1946 11.1986 35.232 11.1434L36.2763 9.5907Z" fill="#FF2C32"/>
<path d="M30.6054 18.7303C27.3898 17.2604 27.6578 12.6142 31.0902 11.7394C34.8889 10.7699 37.3717 15.952 33.9865 18.3401C33.7632 18.4978 33.5399 18.6567 33.3166 18.817C33.2716 18.85 33.2352 18.8933 33.2106 18.9434C33.1857 18.9935 33.1736 19.0488 33.1748 19.1047L33.2772 27.6008C33.2784 27.6451 33.2972 27.6872 33.3294 27.7183C33.3618 27.7492 33.4054 27.7664 33.4506 27.7664C34.5488 27.7454 35.274 28.1526 35.626 28.9881C40.0949 39.5678 44.5478 50.1526 48.9851 60.7427C48.997 60.7696 49.0017 60.7991 48.9995 60.8284C48.997 60.8575 48.9874 60.8857 48.9713 60.9103C48.9552 60.9349 48.9335 60.9553 48.9075 60.9694C48.8818 60.9835 48.8529 60.9909 48.8236 60.9911L46.5458 61.0029C46.482 61.0029 46.4196 60.9832 46.3668 60.9468C46.3139 60.9101 46.2734 60.8582 46.2502 60.798C45.3005 58.2995 44.2091 55.0877 42.274 53.2276C35.9057 47.1195 25.1119 47.7579 20.0403 55.2652C19.0354 56.7469 18.3299 58.997 17.4984 60.7861C17.4691 60.8497 17.4219 60.9034 17.3626 60.9412C17.3033 60.9788 17.2341 60.9989 17.1634 60.9989H15.1695C15.1429 60.9987 15.1165 60.9924 15.0928 60.9806C15.0691 60.9685 15.0485 60.9513 15.0328 60.9302C15.0169 60.9092 15.0064 60.8848 15.0022 60.8591C14.9979 60.8333 14.9999 60.8069 15.008 60.7821C15.1418 60.3565 15.4638 59.5329 15.9735 58.3114C22.6596 42.254 26.7592 32.498 28.2725 29.0432C28.6614 28.158 29.3995 27.7311 30.4872 27.7626C30.5094 27.7631 30.5315 27.7593 30.5523 27.7512C30.5731 27.7431 30.5922 27.7311 30.6083 27.7156C30.6244 27.7004 30.6371 27.6818 30.6463 27.6615C30.6553 27.6411 30.6602 27.6192 30.6606 27.597L30.7671 18.9904C30.7683 18.9364 30.7537 18.8831 30.7251 18.837C30.6962 18.7908 30.6548 18.7538 30.6054 18.7303ZM33.1354 15.3294C33.1354 15.02 33.0125 14.7233 32.7937 14.5046C32.5751 14.2858 32.2784 14.1629 31.9689 14.1629C31.6595 14.1629 31.3628 14.2858 31.1442 14.5046C30.9253 14.7233 30.8025 15.02 30.8025 15.3294C30.8025 15.6388 30.9253 15.9355 31.1442 16.1542C31.3628 16.373 31.6595 16.4959 31.9689 16.4959C32.2784 16.4959 32.5751 16.373 32.7937 16.1542C33.0125 15.9355 33.1354 15.6388 33.1354 15.3294ZM22.6846 49.3461C28.4537 45.6891 35.417 45.7128 41.2298 49.283C41.3533 49.3567 41.3862 49.3276 41.3282 49.1962L33.3206 30.4817C33.2929 30.4164 33.2464 30.3606 33.1868 30.3215C33.1273 30.2821 33.0573 30.2611 32.9857 30.2609H30.9443C30.8721 30.2609 30.8011 30.2819 30.741 30.3219C30.6805 30.362 30.6336 30.4188 30.6054 30.4855L22.519 49.2002C22.4192 49.4289 22.4743 49.4775 22.6846 49.3461Z" fill="#FF2C32"/>
</svg>
