<svg xmlns="http://www.w3.org/2000/svg" viewBox="0 0 400 300" class="ai-surveillance-animation">
  <defs>
    <!-- Gradients -->
    <linearGradient id="bgGradient" x1="0%" y1="0%" x2="100%" y2="100%">
      <stop offset="0%" style="stop-color:#0a0a12;stop-opacity:1" />
      <stop offset="50%" style="stop-color:#12121f;stop-opacity:1" />
      <stop offset="100%" style="stop-color:#0a0a12;stop-opacity:1" />
    </linearGradient>
    
    <linearGradient id="cardGradient" x1="0%" y1="0%" x2="0%" y2="100%">
      <stop offset="0%" style="stop-color:rgba(255,255,255,0.08);stop-opacity:1" />
      <stop offset="100%" style="stop-color:rgba(255,255,255,0.02);stop-opacity:1" />
    </linearGradient>
    
    <linearGradient id="blueGlow" x1="0%" y1="0%" x2="100%" y2="100%">
      <stop offset="0%" style="stop-color:#3b82f6;stop-opacity:1" />
      <stop offset="100%" style="stop-color:#1d4ed8;stop-opacity:1" />
    </linearGradient>
    
    <linearGradient id="scanLine" x1="0%" y1="0%" x2="0%" y2="100%">
      <stop offset="0%" style="stop-color:#3b82f6;stop-opacity:0" />
      <stop offset="50%" style="stop-color:#3b82f6;stop-opacity:0.6" />
      <stop offset="100%" style="stop-color:#3b82f6;stop-opacity:0" />
    </linearGradient>
    
    <!-- Filters -->
    <filter id="glow" x="-50%" y="-50%" width="200%" height="200%">
      <feGaussianBlur stdDeviation="2" result="coloredBlur"/>
      <feMerge>
        <feMergeNode in="coloredBlur"/>
        <feMergeNode in="SourceGraphic"/>
      </feMerge>
    </filter>
    
    <filter id="softGlow" x="-50%" y="-50%" width="200%" height="200%">
      <feGaussianBlur stdDeviation="6" result="coloredBlur"/>
      <feMerge>
        <feMergeNode in="coloredBlur"/>
        <feMergeNode in="SourceGraphic"/>
      </feMerge>
    </filter>
    
    <filter id="glass" x="-10%" y="-10%" width="120%" height="120%">
      <feGaussianBlur in="SourceGraphic" stdDeviation="1" result="blur"/>
      <feColorMatrix in="blur" type="matrix" values="1 0 0 0 0  0 1 0 0 0  0 0 1 0 0  0 0 0 0.3 0" result="coloredBlur"/>
      <feMerge>
        <feMergeNode in="coloredBlur"/>
        <feMergeNode in="SourceGraphic"/>
      </feMerge>
    </filter>
    
    <!-- Clip path -->
    <clipPath id="screenClip">
      <rect x="40" y="50" width="320" height="180" rx="8"/>
    </clipPath>
  </defs>
  
  <!-- Background -->
  <rect width="400" height="300" fill="url(#bgGradient)"/>
  
  <!-- Grid pattern -->
  <g opacity="0.08">
    <line x1="0" y1="75" x2="400" y2="75" stroke="#3b82f6" stroke-width="0.5"/>
    <line x1="0" y1="150" x2="400" y2="150" stroke="#3b82f6" stroke-width="0.5"/>
    <line x1="0" y1="225" x2="400" y2="225" stroke="#3b82f6" stroke-width="0.5"/>
    <line x1="100" y1="0" x2="100" y2="300" stroke="#3b82f6" stroke-width="0.5"/>
    <line x1="200" y1="0" x2="200" y2="300" stroke="#3b82f6" stroke-width="0.5"/>
    <line x1="300" y1="0" x2="300" y2="300" stroke="#3b82f6" stroke-width="0.5"/>
  </g>
  
  <!-- Main surveillance screen frame -->
  <g class="screen-frame">
    <!-- Outer glow -->
    <rect x="35" y="45" width="330" height="195" rx="12" fill="none" stroke="url(#blueGlow)" stroke-width="1" opacity="0.4" filter="url(#softGlow)">
      <animate attributeName="opacity" values="0.4;0.6;0.4" dur="3s" repeatCount="indefinite"/>
    </rect>
    
    <!-- Screen border -->
    <rect x="40" y="50" width="320" height="180" rx="8" fill="#0a0a12" stroke="rgba(255,255,255,0.1)" stroke-width="1"/>
    
    <!-- Screen content -->
    <g clip-path="url(#screenClip)">
      <!-- Video feed background -->
      <rect x="40" y="50" width="320" height="180" fill="#0f0f1a"/>
      
      <!-- City/building silhouette -->
      <path d="M50 230 L50 160 L70 160 L70 140 L90 140 L90 120 L110 120 L110 100 L130 100 L130 80 L150 80 L150 100 L170 100 L170 120 L190 120 L190 140 L210 140 L210 120 L230 120 L230 100 L250 100 L250 80 L270 80 L270 100 L290 100 L290 120 L310 120 L310 140 L330 140 L330 160 L350 160 L350 230 Z" fill="#1a1a2e" opacity="0.5"/>
      
      <!-- Animated horizontal scan line -->
      <rect x="40" y="100" width="320" height="2" fill="#3b82f6" opacity="0.6" filter="url(#glow)">
        <animate attributeName="y" values="60;220;60" dur="3s" repeatCount="indefinite"/>
      </rect>
      
      <!-- Vertical scan lines -->
      <rect x="80" y="50" width="1" height="180" fill="#3b82f6" opacity="0.2">
        <animate attributeName="x" values="80;120;80" dur="4s" repeatCount="indefinite"/>
      </rect>
      <rect x="200" y="50" width="1" height="180" fill="#3b82f6" opacity="0.2">
        <animate attributeName="x" values="200;260;200" dur="5s" repeatCount="indefinite"/>
      </rect>
      
      <!-- Detection bounding boxes -->
      <g class="detection-boxes">
        <rect x="80" y="120" width="50" height="40" rx="3" stroke="#3b82f6" stroke-width="1.5" fill="none" filter="url(#glow)">
          <animate attributeName="opacity" values="0.4;0.9;0.4" dur="2s" repeatCount="indefinite"/>
        </rect>
        <!-- Box label -->
        <rect x="80" y="115" width="30" height="8" rx="2" fill="#3b82f6" opacity="0.8"/>
        
        <rect x="180" y="140" width="60" height="45" rx="3" stroke="#3b82f6" stroke-width="1.5" fill="none" filter="url(#glow)">
          <animate attributeName="opacity" values="0.4;0.9;0.4" dur="2.5s" repeatCount="indefinite"/>
        </rect>
        <rect x="180" y="135" width="35" height="8" rx="2" fill="#3b82f6" opacity="0.8"/>
        
        <rect x="270" y="110" width="45" height="35" rx="3" stroke="#3b82f6" stroke-width="1.5" fill="none" filter="url(#glow)">
          <animate attributeName="opacity" values="0.4;0.9;0.4" dur="1.8s" repeatCount="indefinite"/>
        </rect>
        <rect x="270" y="105" width="28" height="8" rx="2" fill="#3b82f6" opacity="0.8"/>
      </g>
      
      <!-- Moving people/objects -->
      <g class="people">
        <!-- Person 1 -->
        <g>
          <circle cx="105" cy="145" r="6" fill="#3b82f6" filter="url(#glow)" opacity="0.9">
            <animate attributeName="cx" values="105;115;105" dur="4s" repeatCount="indefinite"/>
          </circle>
          <circle cx="105" cy="140" r="4" fill="#3b82f6" opacity="0.7">
            <animate attributeName="cx" values="105;115;105" dur="4s" repeatCount="indefinite"/>
          </circle>
          <!-- ID tag -->
          <rect x="95" y="150" width="20" height="6" rx="2" fill="#3b82f6" opacity="0.8">
            <animate attributeName="x" values="95;105;95" dur="4s" repeatCount="indefinite"/>
          </rect>
        </g>
        
        <!-- Person 2 -->
        <g>
          <circle cx="210" cy="165" r="6" fill="#3b82f6" filter="url(#glow)" opacity="0.9">
            <animate attributeName="cx" values="210;230;210" dur="5s" repeatCount="indefinite"/>
          </circle>
          <circle cx="210" cy="160" r="4" fill="#3b82f6" opacity="0.7">
            <animate attributeName="cx" values="210;230;210" dur="5s" repeatCount="indefinite"/>
          </circle>
          <rect x="200" y="170" width="20" height="6" rx="2" fill="#3b82f6" opacity="0.8">
            <animate attributeName="x" values="200;220;200" dur="5s" repeatCount="indefinite"/>
          </rect>
        </g>
        
        <!-- Person 3 -->
        <g>
          <circle cx="290" cy="130" r="6" fill="#3b82f6" filter="url(#glow)" opacity="0.9">
            <animate attributeName="cx" values="290;275;290" dur="3s" repeatCount="indefinite"/>
          </circle>
          <circle cx="290" cy="125" r="4" fill="#3b82f6" opacity="0.7">
            <animate attributeName="cx" values="290;275;290" dur="3s" repeatCount="indefinite"/>
          </circle>
          <rect x="280" y="135" width="20" height="6" rx="2" fill="#3b82f6" opacity="0.8">
            <animate attributeName="x" values="280;265;280" dur="3s" repeatCount="indefinite"/>
          </rect>
        </g>
      </g>
      
      <!-- Data flow lines -->
      <g class="data-flow" opacity="0.5">
        <path d="M40 160 Q100 150 150 165 T250 155 T360 160" stroke="#3b82f6" stroke-width="1" fill="none" stroke-dasharray="4,4">
          <animate attributeName="stroke-dashoffset" values="0;16" dur="2s" repeatCount="indefinite"/>
        </path>
      </g>
    </g>
    
    <!-- Screen overlay stats -->
    <g class="stats-overlay" font-family="system-ui" font-size="7" fill="#fff">
      <text x="50" y="62" opacity="0.6">CAM-01</text>
      <circle cx="75" cy="58" r="3" fill="#22c55e">
        <animate attributeName="opacity" values="1;0.5;1" dur="1s" repeatCount="indefinite"/>
      </circle>
      <text x="80" y="62" fill="#22c55e" font-size="6">LIVE</text>
      
      <text x="320" y="62" text-anchor="end" opacity="0.6">
        <tspan>12:34:56</tspan>
      </text>
    </g>
  </g>
  
  <!-- Floating UI Cards -->
  <g class="ui-cards">
    <!-- Real-time Alerts Card -->
    <g class="alert-card" transform="translate(280, 55)">
      <rect width="110" height="45" rx="6" fill="url(#cardGradient)" stroke="rgba(59,130,246,0.4)" stroke-width="1" filter="url(#glass)"/>
      <!-- Bell icon with animation -->
      <g transform="translate(12, 15)">
        <path d="M10 2 L10 6 Q10 10 6 12 L6 14 Q6 16 10 16 L10 18 Q10 20 8 20 L8 21 Q8 22 10 22 L10 22 Q12 22 12 21 L12 20 Q14 20 14 18 L14 16 Q14 14 10 14 Q6 14 6 12 L6 10 Q6 6 10 6 L10 2" fill="none" stroke="#3b82f6" stroke-width="1.5">
          <animate attributeName="stroke" values="#3b82f6;#60a5fa;#3b82f6" dur="2s" repeatCount="indefinite"/>
        </path>
        <circle cx="10" cy="19" r="2" fill="#3b82f6">
          <animate attributeName="opacity" values="1;0.3;1" dur="1.5s" repeatCount="indefinite"/>
        </circle>
      </g>
      <text x="32" y="22" font-family="system-ui" font-size="7" fill="#fff" font-weight="600">Alerts</text>
      <text x="32" y="34" font-family="system-ui" font-size="10" fill="#3b82f6" font-weight="bold">12 Active</text>
    </g>
    
    <!-- Crowd Monitoring Card -->
    <g class="crowd-card" transform="translate(280, 108)">
      <rect width="110" height="50" rx="6" fill="url(#cardGradient)" stroke="rgba(59,130,246,0.4)" stroke-width="1" filter="url(#glass)"/>
      <!-- People icons -->
      <g transform="translate(10, 10)">
        <circle cx="10" cy="8" r="4" fill="#3b82f6" opacity="0.8"/>
        <circle cx="10" cy="20" r="4" fill="#3b82f6" opacity="0.6"/>
        <circle cx="22" cy="14" r="4" fill="#3b82f6" opacity="0.7">
          <animate attributeName="cx" values="22;18;22" dur="3s" repeatCount="indefinite"/>
        </circle>
      </g>
      <text x="45" y="18" font-family="system-ui" font-size="6" fill="rgba(255,255,255,0.5)">CROWD</text>
      <text x="45" y="30" font-family="system-ui" font-size="14" fill="#fff" font-weight="bold">24</text>
      <text x="75" y="30" font-family="system-ui" font-size="7" fill="rgba(255,255,255,0.5)">people</text>
      <!-- Density bar -->
      <rect x="45" y="36" width="55" height="4" rx="2" fill="rgba(255,255,255,0.1)"/>
      <rect x="45" y="36" width="40" height="4" rx="2" fill="#3b82f6" opacity="0.8">
        <animate attributeName="width" values="40;48;40" dur="2s" repeatCount="indefinite"/>
      </rect>
    </g>
    
    <!-- Object Detection Card -->
    <g class="object-card" transform="translate(280, 166)">
      <rect width="110" height="50" rx="6" fill="url(#cardGradient)" stroke="rgba(59,130,246,0.4)" stroke-width="1" filter="url(#glass)"/>
      <!-- Grid of detected objects -->
      <g transform="translate(8, 10)">
        <rect x="0" y="0" width="22" height="15" rx="2" fill="rgba(59,130,246,0.3)" stroke="#3b82f6" stroke-width="0.5">
          <animate attributeName="opacity" values="0.3;0.6;0.3" dur="2s" repeatCount="indefinite"/>
        </rect>
        <rect x="26" y="0" width="22" height="15" rx="2" fill="rgba(59,130,246,0.3)" stroke="#3b82f6" stroke-width="0.5">
          <animate attributeName="opacity" values="0.3;0.6;0.3" dur="2.3s" repeatCount="indefinite"/>
        </rect>
        <rect x="52" y="0" width="22" height="15" rx="2" fill="rgba(59,130,246,0.3)" stroke="#3b82f6" stroke-width="0.5">
          <animate attributeName="opacity" values="0.3;0.6;0.3" dur="1.8s" repeatCount="indefinite"/>
        </rect>
        <rect x="0" y="19" width="22" height="15" rx="2" fill="rgba(59,130,246,0.3)" stroke="#3b82f6" stroke-width="0.5">
          <animate attributeName="opacity" values="0.3;0.6;0.3" dur="2.5s" repeatCount="indefinite"/>
        </rect>
        <rect x="26" y="19" width="22" height="15" rx="2" fill="rgba(59,130,246,0.3)" stroke="#3b82f6" stroke-width="0.5">
          <animate attributeName="opacity" values="0.3;0.6;0.3" dur="2.1s" repeatCount="indefinite"/>
        </rect>
        <rect x="52" y="19" width="22" height="15" rx="2" fill="rgba(59,130,246,0.3)" stroke="#3b82f6" stroke-width="0.5">
          <animate attributeName="opacity" values="0.3;0.6;0.3" dur="1.9s" repeatCount="indefinite"/>
        </rect>
      </g>
      <text x="8" y="42" font-family="system-ui" font-size="5" fill="rgba(255,255,255,0.5)">OBJECTS DETECTED</text>
    </g>
    
    <!-- Cloud Storage Card -->
    <g class="cloud-card" transform="translate(40, 240)">
      <rect width="110" height="50" rx="6" fill="url(#cardGradient)" stroke="rgba(59,130,246,0.4)" stroke-width="1" filter="url(#glass)"/>
      <!-- Cloud icon -->
      <g transform="translate(10, 12)">
        <path d="M5 18 Q0 18 0 13 Q0 8 5 8 Q5 4 12 4 Q18 4 21 8 Q25 6 30 9 Q35 9 38 14 Q40 18 35 18 L8 18 Q5 18 5 18" fill="none" stroke="#3b82f6" stroke-width="1.5" opacity="0.8">
          <animate attributeName="opacity" values="0.8;1;0.8" dur="3s" repeatCount="indefinite"/>
        </path>
      </g>
      <!-- Upload arrow -->
      <g transform="translate(75, 18)">
        <circle cx="8" cy="8" r="5" fill="rgba(34,197,94,0.3)" stroke="#22c55e" stroke-width="1">
          <animate attributeName="r" values="5;7;5" dur="1s" repeatCount="indefinite"/>
        </circle>
        <path d="M8 4 L8 10 M5 7 L8 4 L11 7" stroke="#22c55e" stroke-width="1.5" fill="none">
          <animate attributeName="opacity" values="1;0.3;1" dur="1s" repeatCount="indefinite"/>
        </path>
      </g>
      <text x="10" y="42" font-family="system-ui" font-size="6" fill="rgba(255,255,255,0.5)">Cloud Storage</text>
    </g>
    
    <!-- Anomaly Detection Card -->
    <g class="anomaly-card" transform="translate(160, 240)">
      <rect width="110" height="50" rx="6" fill="url(#cardGradient)" stroke="rgba(59,130,246,0.4)" stroke-width="1" filter="url(#glass)"/>
      <!-- Radar/AI icon -->
      <g transform="translate(15, 10)">
        <circle cx="18" cy="18" r="15" fill="none" stroke="#3b82f6" stroke-width="1" opacity="0.3"/>
        <circle cx="18" cy="18" r="10" fill="none" stroke="#3b82f6" stroke-width="1" opacity="0.5">
          <animate attributeName="r" values="10;15;10" dur="2s" repeatCount="indefinite"/>
          <animate attributeName="opacity" values="0.5;0;0.5" dur="2s" repeatCount="indefinite"/>
        </circle>
        <circle cx="18" cy="18" r="5" fill="#3b82f6" opacity="0.8">
          <animate attributeName="r" values="5;8;5" dur="1s" repeatCount="indefinite"/>
        </circle>
      </g>
      <!-- AI text -->
      <text x="45" y="18" font-family="system-ui" font-size="6" fill="rgba(255,255,255,0.5)">ANOMALY</text>
      <text x="45" y="30" font-family="system-ui" font-size="14" fill="#fff" font-weight="bold">Normal</text>
      <circle cx="95" cy="30" r="6" fill="rgba(34,197,94,0.3)" stroke="#22c55e" stroke-width="1"/>
    </g>
    
    <!-- Processing Card -->
    <g class="processing-card" transform="translate(280, 224)">
      <rect width="110" height="35" rx="6" fill="url(#cardGradient)" stroke="rgba(59,130,246,0.4)" stroke-width="1" filter="url(#glass)"/>
      <!-- Processing dots -->
      <g transform="translate(15, 12)">
        <circle cx="0" cy="5" r="3" fill="#3b82f6">
          <animate attributeName="opacity" values="1;0.2;1" dur="1s" repeatCount="indefinite"/>
        </circle>
        <circle cx="10" cy="5" r="3" fill="#3b82f6">
          <animate attributeName="opacity" values="1;0.2;1" dur="1s" begin="0.2s" repeatCount="indefinite"/>
        </circle>
        <circle cx="20" cy="5" r="3" fill="#3b82f6">
          <animate attributeName="opacity" values="1;0.2;1" dur="1s" begin="0.4s" repeatCount="indefinite"/>
        </circle>
      </g>
      <text x="50" y="22" font-family="system-ui" font-size="7" fill="rgba(255,255,255,0.7)">Processing...</text>
    </g>
  </g>
  
  <!-- Corner accents -->
  <g class="corners" opacity="0.4">
    <path d="M15 25 L15 15 L25 15" stroke="#3b82f6" stroke-width="1" fill="none"/>
    <path d="M385 25 L385 15 L375 15" stroke="#3b82f6" stroke-width="1" fill="none"/>
    <path d="M15 275 L15 285 L25 285" stroke="#3b82f6" stroke-width="1" fill="none"/>
    <path d="M385 275 L385 285 L375 285" stroke="#3b82f6" stroke-width="1" fill="none"/>
  </g>
  
  <!-- Floating particles -->
  <g class="particles" opacity="0.5">
    <circle cx="60" cy="80" r="1" fill="#3b82f6">
      <animate attributeName="cy" values="80;40;80" dur="6s" repeatCount="indefinite"/>
      <animate attributeName="opacity" values="0.5;0;0.5" dur="6s" repeatCount="indefinite"/>
    </circle>
    <circle cx="140" cy="100" r="1.5" fill="#3b82f6">
      <animate attributeName="cy" values="100;50;100" dur="5s" repeatCount="indefinite"/>
      <animate attributeName="opacity" values="0.4;0;0.4" dur="5s" repeatCount="indefinite"/>
    </circle>
    <circle cx="220" cy="70" r="1" fill="#3b82f6">
      <animate attributeName="cy" values="70;30;70" dur="4.5s" repeatCount="indefinite"/>
      <animate attributeName="opacity" values="0.5;0;0.5" dur="4.5s" repeatCount="indefinite"/>
    </circle>
    <circle cx="300" cy="90" r="1.5" fill="#3b82f6">
      <animate attributeName="cy" values="90;40;90" dur="5.5s" repeatCount="indefinite"/>
      <animate attributeName="opacity" values="0.4;0;0.4" dur="5.5s" repeatCount="indefinite"/>
    </circle>
    <circle cx="370" cy="110" r="1" fill="#fff">
      <animate attributeName="cy" values="110;60;110" dur="4s" repeatCount="indefinite"/>
      <animate attributeName="opacity" values="0.3;0;0.3" dur="4s" repeatCount="indefinite"/>
    </circle>
  </g>
</svg>